# AST/ASF file generated using VICON BodyLanguage
# -----------------------------------------------
:version 1.10
:name VICON
:units
  mass 1.0
  length 0.45
  angle deg
:documentation
   .ast/.asf automatically generated from VICON data using
   VICON BodyBuilder and BodyLanguage model FoxedUp or BRILLIANT.MOD
:root
   order TX TY TZ RX RY RZ
   axis XYZ
   position 0 0 0  
   orientation 0 0 0 
:bonedata
  begin
     id 1 
     name lhipjoint
     direction 0.523584 -0.783993 0.333487 
     length 2.44404 
     axis 0 0 0  XYZ
  end
  begin
     id 2 
     name lfemur
     direction 0.34202 -0.939693 0  
     length 7.29523  
     axis 0 0 20  XYZ
    dof rx ry rz
    limits (-160.0 20.0)
           (-70.0 70.0)
           (-60.0 70.0)
  end
  begin
     id 3 
     name ltibia
     direction 0.34215 -0.939645 0   
     length 7.81194   
     axis 0 0 20   XYZ
    dof rx
    limits (-10.0 170.0)
  end
  begin
     id 4 
     name lfoot
     direction 0.0941847 -0.25877 0.961336   
     length 2.41437   
     axis -90 7.62852e-016 20   XYZ
    dof rx rz
    limits (-45.0 90.0)
           (-70.0 20.0)
  end
  begin
     id 5 
     name ltoes
     direction 1.53526e-011 -4.21768e-011 1   
     length 1.2048   
     axis -90 7.62852e-016 20   XYZ
    dof rx
    limits (-90.0 20.0)
  end
  begin
     id 6 
     name rhipjoint
     direction -0.46599 -0.814191 0.346332   
     length 2.35339  
     axis 0 0 0  XYZ 
  end
  begin
     id 7 
     name rfemur
     direction -0.34202 -0.939693 0   
     length 7.34966   
     axis 0 0 -20   XYZ
    dof rx ry rz
    limits (-160.0 20.0)
           (-70.0 70.0)
           (-70.0 60.0)
  end
  begin
     id 8 
     name rtibia
     direction -0.34202 -0.939693 0   
     length 7.89934   
     axis 0 0 -20   XYZ
    dof rx
    limits (-10.0 170.0)
 end
 begin
     id 9 
     name rfoot
     direction -0.0975468 -0.268008 0.958466   
     length 2.27725  
     axis -90 -7.62852e-016 -20   XYZ
    dof rx rz
    limits (-45.0 90.0)
           (-20.0 70.0)
  end
  begin
     id 10 
     name rtoes
     direction -1.53563e-011 -4.22022e-011 1   
     length 1.13683   
     axis -90 -7.62852e-016 -20   XYZ
    dof rx
    limits (-90.0 20.0)
  end
  begin
     id 11 
     name lowerback
     direction -0.00456414 0.999242 -0.0386661   
     length 2.16968   
     axis 0 0 0   XYZ
    dof rx ry rz
    limits (-20.0 45.0)
           (-30.0 30.0)
           (-30.0 30.0)
  end
  begin
     id 12 
     name upperback
     direction 0.0297078 0.998988 0.0337799   
     length 2.15674   
     axis 0 0 0   XYZ
    dof rx ry rz
    limits (-20.0 45.0)
           (-30.0 30.0)
           (-30.0 30.0)
  end
  begin
     id 13 
     name thorax
     direction 0.0309305 0.998202 0.0513506   
     length 2.16319   
     axis 0 0 0   XYZ
    dof rx ry rz
    limits (-20.0 45.0)
           (-30.0 30.0)
           (-30.0 30.0)
  end
  begin
     id 14 
     name lowerneck
     direction -0.103039 0.983474 0.148872   
     length 1.64318   
     axis 0 0 0   XYZ
    dof rx ry rz
    limits (-20.0 45.0)
           (-30.0 30.0)
           (-30.0 30.0)
  end
  begin
     id 15 
     name upperneck
     direction 0.128124 0.971079 -0.201469   
     length 1.68242   
     axis 0 0 0   XYZ
    dof rx ry rz
    limits (-20.0 45.0)
           (-30.0 30.0)
           (-30.0 30.0)
  end
  begin
     id 16
     name head
     direction 0.0496365 0.994919 -0.0875941  
     length 1.70108  
     axis 0 0 0   XYZ
    dof rx ry rz
    limits (-20.0 45.0)
           (-30.0 30.0)
           (-30.0 30.0)
  end
  begin
     id 17 
     name lclavicle
     direction 0.887148 0.430222 -0.166967  
     length 3.25763  
     axis 0 0 0   XYZ
    dof ry rz
    limits (-20.0 10.0)
           (0.0 20.0)
  end
  begin
     id 18 
     name lhumerus
     direction 1 -4.48962e-011 1.92156e-027   
     length 5.10755   
     axis 180 -30 -90   XYZ
    dof rx ry rz
    limits (-60.0 90.0)
           (-90.0 90.0)
           (-90.0 90.0)
  end
  begin
     id 19
     name lradius
     direction 1 -4.48958e-011 7.10963e-027   
     length 3.36253   
     axis 180 -30 -90   XYZ
    dof rx
    limits (-10.0 170.0)
  end
  begin
     id 20
     name lwrist
     direction 1 -4.48946e-011 1.82396e-026   
     length 1.68127   
     axis -1.15222e-014 90 90   XYZ
    dof ry
    limits (-180.0 0.0)
 end
  begin
     id 21 
     name lhand
     direction 1 -4.48919e-011 3.64759e-026   
     length 0.619088   
     axis -2.32787e-014 90 90   XYZ
    dof rx rz
    limits (-90.0 90.0)
           (-45.0 45.0)
  end
  begin
     id 22 
     name lfingers
     direction 1 -4.49012e-011 7.29744e-026   
     length 0.499125   
     axis -4.6558e-014 90 90   XYZ
    dof rx
    limits (0.0 90.0)
  end
  begin
     id 23
     name lthumb
     direction 0.707107 -6.35028e-011 0.707107   
     length 0.716646   
     axis -90 45 3.78391e-014   XYZ
    dof rx rz
    limits (-45.0 45.0)
           (-45.0 45.0)
  end
  begin
     id 24 
     name rclavicle
     direction -0.82886 0.533198 -0.169384   
     length 3.20647  
     axis 0 0 0   XYZ 
    dof ry rz
    limits (-10.0 20.0)
           (-20.0 0.0)
  end
  begin
     id 25 
     name rhumerus
     direction -1 -4.48973e-011 3.06863e-027  
     length 5.27387   
     axis 180 30 90   XYZ
    dof rx ry rz
    limits (-90.0 60.0)
           (-90.0 90.0)
           (-90.0 90.0)
  end
  begin
     id 26 
     name rradius
     direction -1 -4.48988e-011 9.4797e-027   
     length 3.40144   
     axis 180 30 90   XYZ
    dof rx
    limits (-10.0 170.0)
  end
  begin
     id 27 
     name rwrist
     direction -1 -4.48897e-011 1.82366e-026   
     length 1.70072   
     axis -1.15222e-014 -90 -90   XYZ
    dof ry
    limits (-180.0 0.0)
  end
  begin
     id 28
     name rhand
     direction -1 -4.48965e-011 3.64815e-026   
     length 0.742821   
     axis -2.32787e-014 -90 -90   XYZ
    dof rx rz
    limits (-90.0 90.0)
           (-45.0 45.0)
  end
  begin
     id 29
     name rfingers
     direction -1 -4.49016e-011 7.29754e-026   
     length 0.598881   
     axis -4.6558e-014 -90 -90   XYZ
    dof rx
    limits (0.0 90.0)
  end
  begin
     id 30
     name rthumb
     direction -0.707107 -6.3488e-011 0.707107   
     length 0.859877   
     axis -90 -45 -3.78391e-014   XYZ
    dof rx rz
    limits (-45.0 45.0)
           (-45.0 45.0)
  end
:hierarchy
  begin
    root lhipjoint rhipjoint lowerback
    lhipjoint lfemur
    lfemur ltibia
    ltibia lfoot
    lfoot ltoes
    rhipjoint rfemur
    rfemur rtibia
    rtibia rfoot
    rfoot rtoes
    lowerback upperback
    upperback thorax
    thorax lowerneck lclavicle rclavicle
    lowerneck upperneck
    upperneck head
    lclavicle lhumerus
    lhumerus lradius
    lradius lwrist
    lwrist lhand lthumb
    lhand lfingers
    rclavicle rhumerus
    rhumerus rradius
    rradius rwrist
    rwrist rhand rthumb
    rhand rfingers
  end

#!OML:ASF F:\Work\Patient Classification 1\justin\Session 1\justin.ASF
:FULLY-SPECIFIED
:DEGREES
2816
root 1.34227 18.3327 -4.79002 -0.545136 3.34601 -4.22808
lowerback 6.43682 1.30167 -1.11606
upperback -1.15771 1.80589 3.27872
thorax -4.96067 0.978729 3.84951
lowerneck -18.8845 -5.29664 -14.9957
upperneck 23.9718 -5.73154 10.6265
head 11.739 -2.66935 5.60782
rclavicle 2.6224e-014 3.93594e-014
rhumerus -41.6361 -10.7636 -76.4347
rradius 31.7035
rwrist -1.92964
rhand -22.2444 9.59443
rfingers 7.12502
rthumb 4.1728 -20.3444
lclavicle 2.6224e-014 3.93594e-014
lhumerus -42.7311 14.992 85.03
lradius 30.936
lwrist 4.9987
lhand -13.3483 32.582
lfingers 7.12502
lthumb 12.7575 62.1723
rfemur -0.590066 -0.926776 21.4921
rtibia 16.4893
rfoot -11.1344 -8.12525
rtoes -15.9531
lfemur -0.631039 -0.22582 -17.4191
ltibia 18.3705
lfoot -13.1181 -3.19581
ltoes -12.1958
2817
root 1.33243 18.3328 -4.78553 -0.534914 3.28563 -4.20656
lowerback 6.46359 1.36582 -1.25448
upperback -1.19417 1.88125 3.27551
thorax -5.02455 1.02138 3.91582
lowerneck -18.6286 -5.20571 -14.8621
upperneck 23.8717 -5.62971 10.4613
head 11.624 -2.63528 5.53327
rclavicle -3.20036e-015 1.63003e-014
rhumerus -41.6567 -10.4757 -76.625
rradius 31.8092
rwrist -2.39122
rhand -22.3751 9.55295
rfingers 7.12502
rthumb 4.0466 -20.3884
lclavicle -3.20036e-015 1.63003e-014
lhumerus -42.9112 14.8712 85.0089
lradius 31.0894
lwrist 5.07621
lhand -13.2205 32.659
lfingers 7.12502
lthumb 12.8806 62.2416
rfemur -0.595489 -0.737056 21.5361
rtibia 16.4916
rfoot -11.1365 -8.27464
rtoes -16.0214
lfemur -0.619044 -0.219198 -17.4088
ltibia 18.3829
lfoot -13.1276 -3.12826
ltoes -12.5363
2818
root 1.32123 18.333 -4.77965 -0.53646 3.36979 -4.25681
lowerback 6.54767 1.3666 -1.31915
upperback -1.23672 1.87962 3.30018
thorax -5.1199 1.02467 3.9772
lowerneck -18.6596 -5.13914 -14.7544
upperneck 24.0183 -5.52214 10.2853
head 11.6605 -2.59939 5.46925
rclavicle 2.38309e-015 -1.74931e-014
rhumerus -41.7104 -10.1539 -76.8144
rradius 31.9909
rwrist -2.69103
rhand -22.5268 9.80549
rfingers 7.12502
rthumb 3.90004 -20.1386
lclavicle 2.38309e-015 -1.74931e-014
lhumerus -42.9506 14.8367 84.9658
lradius 31.0876
lwrist 5.10604
lhand -13.1795 32.3158
lfingers 7.12502
lthumb 12.9202 61.8958
rfemur -0.543939 -0.613323 21.6739
rtibia 16.4518
rfoot -11.1525 -8.49407
rtoes -16.0809
lfemur -0.653409 -0.288618 -17.298
ltibia 18.4329
lfoot -13.1057 -3.19353
ltoes -12.5087
2819
root 1.3092 18.3337 -4.77615 -0.499147 3.58723 -4.42158
lowerback 6.68168 1.31617 -1.24485
upperback -1.34746 1.82435 3.34913
thorax -5.30702 0.999613 3.99062
lowerneck -18.687 -5.06598 -14.632
upperneck 24.1743 -5.40837 10.1015
head 11.6987 -2.56069 5.401
rclavicle 5.57179e-015 -2.38542e-015
rhumerus -41.8534 -9.74296 -77.0426
rradius 32.4281
rwrist -2.96179
rhand -22.5252 9.53598
rfingers 7.12502
rthumb 3.9016 -20.408
lclavicle 5.57179e-015 -2.38542e-015
lhumerus -43.0581 14.6736 84.9629
lradius 31.1838
lwrist 5.16555
lhand -13.1804 31.904
lfingers 7.12502
lthumb 12.9193 61.4841
rfemur -0.518965 -0.584846 21.9364
rtibia 16.3696
rfoot -11.1896 -8.72858
rtoes -16.0825
lfemur -0.774737 -0.33857 -17.0439
ltibia 18.4804
lfoot -13.0868 -3.39451
ltoes -12.6586
2820
root 1.29792 18.3347 -4.77613 -0.502036 3.763 -4.56756
lowerback 6.7303 1.28977 -1.1215
upperback -1.33654 1.79951 3.34644
thorax -5.31697 0.983294 3.91995
lowerneck -18.6709 -4.9822 -14.3532
upperneck 24.1637 -5.30376 9.84041
head 11.6585 -2.51879 5.26788
rclavicle 6.37693e-015 5.1684e-015
rhumerus -41.6319 -9.44186 -77.3534
rradius 32.6941
rwrist -3.3348
rhand -22.4911 8.94828
rfingers 7.12502
rthumb 3.93456 -20.9951
lclavicle 6.37693e-015 5.1684e-015
lhumerus -42.9971 14.3365 85.0224
lradius 31.4272
lwrist 5.29457
lhand -13.2388 31.7565
lfingers 7.12502
lthumb 12.863 61.3402
rfemur -0.435342 -0.56969 22.1632
rtibia 16.226
rfoot -11.1432 -8.91427
rtoes -15.8803
lfemur -0.839564 -0.428208 -16.815
ltibia 18.5395
lfoot -13.098 -3.55718
ltoes -12.4093
